<svg xmlns="http://www.w3.org/2000/svg" width="20" height="20" viewBox="0 0 20 20">
    <path fill="#000" fill-rule="evenodd" d="M10 13.07c1.935 0 3.03-1.132 3.03-3.056 0-2.008-1.066-3.112-3.03-3.112-1.935 0-3.03 1.104-3.03 3.112 0 1.952 1.095 3.055 3.03 3.055m0-7.128c2.525 0 4.011 1.527 4.011 4.073 0 2.518-1.515 4.017-4.011 4.017-2.496 0-4.011-1.5-4.011-4.017 0-2.574 1.486-4.073 4.011-4.073M6.662 1.273c-.813.368-1.767.962-2.609 1.612.197.68.28 1.358.28 2.009 0 1.754-1.009 2.857-3.31 3.536-.055.99-.055 2.122 0 3.14 2.301.679 3.31 1.782 3.31 3.536 0 .65-.083 1.33-.28 2.009.842.65 1.796 1.244 2.609 1.612.954-1.132 1.992-1.64 3.338-1.64s2.384.508 3.338 1.64c.813-.368 1.767-.962 2.609-1.612a7.227 7.227 0 0 1-.28-2.009c0-1.754 1.009-2.857 3.31-3.536.055-1.018.055-2.15 0-3.14-2.301-.679-3.31-1.782-3.31-3.536 0-.65.083-1.33.28-2.009-.842-.65-1.796-1.244-2.609-1.612-.954 1.132-1.992 1.64-3.338 1.64s-2.384-.508-3.338-1.64m6.087-.849L13.114 0c1.346.65 2.917 1.584 4.039 2.433l-.168.537c-.225.708-.337 1.358-.337 1.924 0 1.301.785 2.065 2.693 2.602l.617.17a64.744 64.744 0 0 1 0 4.668l-.617.17c-1.908.537-2.693 1.3-2.693 2.602 0 .566.112 1.216.337 1.924l.168.537c-1.122.849-2.693 1.782-4.04 2.433l-.364-.424c-.87-1.047-1.711-1.528-2.749-1.528s-1.88.481-2.749 1.528L6.886 20c-1.346-.65-2.917-1.584-4.039-2.433l.168-.537c.225-.708.337-1.358.337-1.924 0-1.301-.785-2.065-2.693-2.602l-.617-.17a64.744 64.744 0 0 1 0-4.668l.617-.17c1.908-.537 2.693-1.3 2.693-2.602 0-.566-.112-1.216-.337-1.924l-.168-.537C3.97 1.584 5.54.65 6.887 0l.364.424C8.121 1.471 8.962 1.952 10 1.952s1.88-.481 2.749-1.528"/>
</svg>
