<svg id="Layer_5" enable-background="new 0 0 64 64" height="512" viewBox="0 0 64 64" width="512" xmlns="http://www.w3.org/2000/svg"><path d="m25.846 29h2.523v1.999h-2.523z" transform="matrix(.61 -.793 .793 .61 -13.199 33.202)"/><path d="m30.213 27.599c1.797-2.404 2.787-5.38 2.787-8.381v-.218h-2v.218c0 2.572-.848 5.124-2.388 7.184z"/><path d="m17.152 7.142c.61-.094 1.231-.142 1.848-.142v-2c-.719 0-1.443.056-2.152.165z"/><path d="m5 19h2c0-5.22 3.339-9.809 8.308-11.419l-.616-1.902c-5.797 1.878-9.692 7.231-9.692 13.321z"/><path d="m44 10c-1.654 0-3 1.346-3 3v8c0 1.654 1.346 3 3 3h16c1.654 0 3-1.346 3-3v-8c0-1.654-1.346-3-3-3h-7v-1c0-1.654-1.346-3-3-3h-18.584c-3.233-3.089-7.602-5-12.416-5-9.925 0-18 8.075-18 18v.218c0 3.948 1.326 7.846 3.733 10.975l1.573 2.046-2.716 2.715 1.425 2.303c-.585 1.055-1.048 2.172-1.381 3.332l-2.634.619v7.584l2.635.62c.333 1.16.795 2.277 1.381 3.332l-1.425 2.303 5.363 5.363 2.302-1.426c1.057.586 2.173 1.049 3.332 1.381l.62 2.635h7.584l.62-2.635c1.159-.332 2.275-.795 3.332-1.381l2.302 1.426 5.363-5.363-1.425-2.303c.586-1.056 1.049-2.172 1.381-3.332l2.635-.62v-7.584l-2.635-.62c-.333-1.16-.795-2.277-1.381-3.332l1.425-2.303-2.716-2.715 1.573-2.046c.534-.694 1.005-1.431 1.43-2.192h15.304c.551 0 1 .448 1 1v1h-7c-1.654 0-3 1.346-3 3v8c0 1.654 1.346 3 3 3h16c1.654 0 3-1.346 3-3v-8c0-1.654-1.346-3-3-3h-7v-1c0-1.654-1.346-3-3-3h-14.345c.872-2.146 1.345-4.453 1.345-6.782v-.218c0-4.144-1.422-7.954-3.784-11h16.784c.551 0 1 .448 1 1v1zm17 23v8c0 .552-.449 1-1 1h-16c-.551 0-1-.448-1-1v-8c0-.552.449-1 1-1h16c.551 0 1 .448 1 1zm-29.125 2.248-1.229 1.986.318.523c.736 1.213 1.281 2.526 1.619 3.904l.146.595 2.271.536v4.416l-2.272.535-.146.595c-.337 1.377-.882 2.69-1.619 3.904l-.318.523 1.229 1.986-3.123 3.123-1.986-1.229-.524.318c-1.215.736-2.528 1.281-3.904 1.617l-.595.146-.534 2.274h-4.416l-.535-2.273-.595-.146c-1.375-.336-2.689-.881-3.904-1.617l-.524-.318-1.986 1.229-3.123-3.123 1.229-1.986-.318-.523c-.736-1.213-1.281-2.526-1.619-3.904l-.146-.595-2.271-.536v-4.416l2.272-.535.146-.595c.338-1.378.882-2.691 1.619-3.904l.318-.523-1.229-1.986 1.411-1.411 2.484 3.229c-1.949 2.194-3.021 4.974-3.021 7.933 0 6.617 5.383 12 12 12s12-5.383 12-12c0-2.959-1.072-5.739-3.02-7.934l2.484-3.229zm-6.875 3.752v2h-12v-2zm-10-21h-2c-1.103 0-2-.897-2-2s.897-2 2-2 2 .897 2 2zm6 19h-4v-17h4zm-2 14c4.411 0 8-3.589 8-8v-3.975c1.292 1.718 2 3.787 2 5.975 0 5.514-4.486 10-10 10s-10-4.486-10-10c0-2.188.708-4.257 2-5.975v3.975c0 4.411 3.589 8 8 8zm-6-8h12c0 3.309-2.691 6-6 6s-6-2.691-6-6zm22-23.782c0 3.51-1.178 6.975-3.318 9.756l-6.174 8.026h-2.508v-17h2c2.206 0 4-1.794 4-4s-1.794-4-4-4-4 1.794-4 4v2h-4v-2c0-2.206-1.794-4-4-4s-4 1.794-4 4 1.794 4 4 4h2v17h-2.508l-6.174-8.026c-2.14-2.782-3.318-6.246-3.318-9.756v-.218c0-8.822 7.178-16 16-16s16 7.178 16 16zm-12-1.218v-2c0-1.103.897-2 2-2s2 .897 2 2-.897 2-2 2zm38-5v8c0 .552-.449 1-1 1h-16c-.551 0-1-.448-1-1v-8c0-.552.449-1 1-1h16c.551 0 1 .448 1 1z"/><path d="m45 14h14v2h-14z"/><path d="m57 18h2v2h-2z"/><path d="m45 18h10v2h-10z"/><path d="m45 34h14v2h-14z"/><path d="m57 38h2v2h-2z"/><path d="m45 38h10v2h-10z"/></svg>